<svg id="visual" viewBox="0 0 960 540" width="960" height="540" xmlns="http://www.w3.org/2000/svg" xmlns:xlink="http://www.w3.org/1999/xlink" version="1.1"><rect x="0" y="0" width="960" height="540" fill="#02467a"></rect><path d="M0 355L192 386L384 344L576 369L768 356L960 391L960 541L768 541L576 541L384 541L192 541L0 541Z" fill="#0066ff"></path><path d="M0 385L192 378L384 421L576 425L768 355L960 356L960 541L768 541L576 541L384 541L192 541L0 541Z" fill="#1154cf"></path><path d="M0 391L192 409L384 394L576 453L768 400L960 440L960 541L768 541L576 541L384 541L192 541L0 541Z" fill="#1742a1"></path><path d="M0 446L192 476L384 427L576 436L768 428L960 481L960 541L768 541L576 541L384 541L192 541L0 541Z" fill="#183175"></path><path d="M0 511L192 508L384 484L576 510L768 476L960 518L960 541L768 541L576 541L384 541L192 541L0 541Z" fill="#14204c"></path></svg>