<svg id="visual" viewBox="0 0 900 450" width="900" height="450" xmlns="http://www.w3.org/2000/svg" xmlns:xlink="http://www.w3.org/1999/xlink" version="1.1"><rect x="0" y="0" width="900" height="450" fill="#931C1C"></rect><path d="M0 322L129 311L257 328L386 284L514 315L643 279L771 295L900 269L900 451L771 451L643 451L514 451L386 451L257 451L129 451L0 451Z" fill="#f5730a"></path><path d="M0 324L129 301L257 349L386 347L514 332L643 310L771 343L900 353L900 451L771 451L643 451L514 451L386 451L257 451L129 451L0 451Z" fill="#da5b09"></path><path d="M0 379L129 327L257 349L386 359L514 375L643 375L771 360L900 333L900 451L771 451L643 451L514 451L386 451L257 451L129 451L0 451Z" fill="#be4407"></path><path d="M0 392L129 375L257 391L386 375L514 392L643 392L771 406L900 393L900 451L771 451L643 451L514 451L386 451L257 451L129 451L0 451Z" fill="#a32d04"></path><path d="M0 400L129 401L257 398L386 411L514 423L643 429L771 418L900 395L900 451L771 451L643 451L514 451L386 451L257 451L129 451L0 451Z" fill="#871400"></path></svg>