<svg id="visual" viewBox="0 0 960 540" width="960" height="540" xmlns="http://www.w3.org/2000/svg" xmlns:xlink="http://www.w3.org/1999/xlink" version="1.1"><rect x="0" y="0" width="960" height="540" fill="#02467a"></rect><path d="M0 391L192 330L384 352L576 357L768 341L960 313L960 541L768 541L576 541L384 541L192 541L0 541Z" fill="#0066ff"></path><path d="M0 426L192 356L384 424L576 358L768 425L960 399L960 541L768 541L576 541L384 541L192 541L0 541Z" fill="#1154cf"></path><path d="M0 411L192 424L384 443L576 417L768 445L960 416L960 541L768 541L576 541L384 541L192 541L0 541Z" fill="#1742a1"></path><path d="M0 460L192 464L384 483L576 465L768 467L960 451L960 541L768 541L576 541L384 541L192 541L0 541Z" fill="#183175"></path><path d="M0 500L192 493L384 521L576 509L768 472L960 477L960 541L768 541L576 541L384 541L192 541L0 541Z" fill="#14204c"></path></svg>