<svg id="visual" viewBox="0 0 960 540" width="960" height="540" xmlns="http://www.w3.org/2000/svg" xmlns:xlink="http://www.w3.org/1999/xlink" version="1.1"><rect x="0" y="0" width="960" height="540" fill="#02467a"></rect><path d="M0 312L137 388L274 344L411 371L549 306L686 310L823 329L960 304L960 541L823 541L686 541L549 541L411 541L274 541L137 541L0 541Z" fill="#0066ff"></path><path d="M0 346L137 383L274 356L411 404L549 364L686 380L823 346L960 399L960 541L823 541L686 541L549 541L411 541L274 541L137 541L0 541Z" fill="#1154cf"></path><path d="M0 413L137 411L274 429L411 437L549 429L686 443L823 436L960 444L960 541L823 541L686 541L549 541L411 541L274 541L137 541L0 541Z" fill="#1742a1"></path><path d="M0 429L137 483L274 437L411 473L549 439L686 463L823 481L960 477L960 541L823 541L686 541L549 541L411 541L274 541L137 541L0 541Z" fill="#183175"></path><path d="M0 474L137 515L274 494L411 481L549 508L686 473L823 487L960 519L960 541L823 541L686 541L549 541L411 541L274 541L137 541L0 541Z" fill="#14204c"></path></svg>