<svg id="visual" viewBox="0 0 960 540" width="960" height="540" xmlns="http://www.w3.org/2000/svg" xmlns:xlink="http://www.w3.org/1999/xlink" version="1.1"><rect x="0" y="0" width="960" height="540" fill="#931C1C"></rect><path d="M0 309L137 380L274 332L411 361L549 372L686 310L823 398L960 328L960 541L823 541L686 541L549 541L411 541L274 541L137 541L0 541Z" fill="#f5730a"></path><path d="M0 373L137 385L274 413L411 426L549 409L686 418L823 372L960 393L960 541L823 541L686 541L549 541L411 541L274 541L137 541L0 541Z" fill="#da5b09"></path><path d="M0 387L137 445L274 395L411 438L549 390L686 441L823 410L960 409L960 541L823 541L686 541L549 541L411 541L274 541L137 541L0 541Z" fill="#be4407"></path><path d="M0 481L137 489L274 462L411 463L549 455L686 463L823 439L960 485L960 541L823 541L686 541L549 541L411 541L274 541L137 541L0 541Z" fill="#a32d04"></path><path d="M0 514L137 519L274 482L411 510L549 482L686 502L823 501L960 497L960 541L823 541L686 541L549 541L411 541L274 541L137 541L0 541Z" fill="#871400"></path></svg>